<svg xmlns="http://www.w3.org/2000/svg" class="ionicon" viewBox="0 0 512 512">
    <title>Phone Portrait</title>
    <rect xmlns="http://www.w3.org/2000/svg" x="128" y="16" width="256" height="480" rx="48" ry="48" fill="#559c9a" stroke="currentColor" stroke-width="32" style="&#10;    position: absolute;&#10;    z-index: 20;&#10;"/>
    <rect xmlns="http://www.w3.org/2000/svg" x="228" id="ll" y="20" width="30" height="30" rx="48" ry="48" fill="none" stroke-width="3" style="&#10;    y: 63px;&#10;    x: 158px;&#10;    stroke: blue;&#10;    rx: 6px;&#10;    ry: 6px;&#10;    fill: #4f4faf;&#10;"/>
    <rect xmlns="http://www.w3.org/2000/svg" x="228" id="ll" y="20" width="30" height="30" rx="48" ry="48" fill="none" stroke-width="3" style="&#10;    y: 63px;&#10;    x: 213px;&#10;    stroke: #00ff4c;&#10;    rx: 6px;&#10;    ry: 6px;&#10;    fill: #4faf58;&#10;"/>
    <rect xmlns="http://www.w3.org/2000/svg" x="228" id="ll" y="20" width="30" height="30" rx="48" ry="48" fill="none" stroke-width="3" style="&#10;    y: 63px;&#10;    x: 268px;&#10;    stroke: #00d0ff;&#10;    rx: 6px;&#10;    ry: 6px;&#10;    fill: #4f94af;&#10;"/>
    <rect xmlns="http://www.w3.org/2000/svg" x="228" id="ll" y="20" width="30" height="30" rx="48" ry="48" fill="none" stroke-width="3" style="&#10;    y: 63px;&#10;    x: 324px;&#10;    stroke: #bb00ff;&#10;    rx: 6px;&#10;    ry: 6px;&#10;    fill: #6d4faf;&#10;"/>
    <rect xmlns="http://www.w3.org/2000/svg" x="228" id="ll" y="20" width="30" height="30" rx="48" ry="48" fill="none" stroke-width="3" style="&#10;    y: 115px;&#10;    x: 158px;&#10;    stroke: blue;&#10;    rx: 6px;&#10;    ry: 6px;&#10;    fill: #4f4faf;&#10;"/>
    <rect xmlns="http://www.w3.org/2000/svg" x="228" id="ll" y="20" width="30" height="30" rx="48" ry="48" fill="none" stroke-width="3" style="&#10;    y: 115px;&#10;    x: 213px;&#10;    stroke: #00ff4c;&#10;    rx: 6px;&#10;    ry: 6px;&#10;    fill: #4faf58;&#10;"/>
    <rect xmlns="http://www.w3.org/2000/svg" x="228" id="ll" y="20" width="30" height="30" rx="48" ry="48" fill="none" stroke-width="3" style="&#10;    y: 115px;&#10;    x: 268px;&#10;    stroke: #00d0ff;&#10;    rx: 6px;&#10;    ry: 6px;&#10;    fill: #4f94af;&#10;"/>
    <rect xmlns="http://www.w3.org/2000/svg" x="228" id="ll" y="20" width="30" height="30" rx="48" ry="48" fill="none" stroke-width="3" style="&#10;    y: 115px;&#10;    x: 324px;&#10;    stroke: #bb00ff;&#10;    rx: 6px;&#10;    ry: 6px;&#10;    fill: #6d4faf;&#10;"/>
    <rect xmlns="http://www.w3.org/2000/svg" x="228" id="ll" y="20" width="30" height="30" rx="48" ry="48" fill="none" stroke-width="3" style="&#10;    y: 166px;&#10;    x: 158px;&#10;    stroke: blue;&#10;    rx: 6px;&#10;    ry: 6px;&#10;    fill: #4f4faf;&#10;"/>
    <rect xmlns="http://www.w3.org/2000/svg" x="228" id="ll" y="20" width="30" height="30" rx="48" ry="48" fill="none" stroke-width="3" style="&#10;    y: 166px;&#10;    x: 213px;&#10;    stroke: #00ff4c;&#10;    rx: 6px;&#10;    ry: 6px;&#10;    fill: #4faf58;&#10;"/>
    <rect xmlns="http://www.w3.org/2000/svg" x="228" id="ll" y="20" width="30" height="30" rx="48" ry="48" fill="none" stroke-width="3" style="&#10;    y: 166px;&#10;    x: 268px;&#10;    stroke: #00d0ff;&#10;    rx: 6px;&#10;    ry: 6px;&#10;    fill: #4f94af;&#10;"/>
    <rect xmlns="http://www.w3.org/2000/svg" x="228" id="ll" y="20" width="30" height="30" rx="48" ry="48" fill="none" stroke-width="3" style="&#10;    y: 166px;&#10;    x: 324px;&#10;    stroke: #bb00ff;&#10;    rx: 6px;&#10;    ry: 6px;&#10;    fill: #6d4faf;&#10;"/>
    <rect xmlns="http://www.w3.org/2000/svg" x="228" id="ll" y="20" width="30" height="30" rx="48" ry="48" fill="none" stroke-width="3" style="&#10;    y: 215px;&#10;    x: 158px;&#10;    stroke: #303064;&#10;    rx: 6px;&#10;    ry: 6px;&#10;    fill: #5baf4f;&#10;"/>
    <rect xmlns="http://www.w3.org/2000/svg" x="228" id="ll" y="20" width="30" height="30" rx="48" ry="48" fill="none" stroke-width="3" style="&#10;    y: 215px;&#10;    x: 213px;&#10;    stroke: #f4f9f6;&#10;    rx: 6px;&#10;    ry: 6px;&#10;    fill: #180d64;&#10;"/>
    <rect xmlns="http://www.w3.org/2000/svg" x="228" id="ll" y="20" width="30" height="30" rx="48" ry="48" fill="none" stroke-width="3" style="&#10;    y: 215px;&#10;    x: 268px;&#10;    stroke: #ffdb00;&#10;    rx: 6px;&#10;    ry: 6px;&#10;    fill: #7f7353;&#10;"/>
    <rect xmlns="http://www.w3.org/2000/svg" x="228" id="ll" y="20" width="30" height="30" rx="48" ry="48" fill="none" stroke-width="3" style="&#10;    y: 215px;&#10;    x: 324px;&#10;    stroke: #00ffd9;&#10;    rx: 6px;&#10;    ry: 6px;&#10;    fill: #136e12;&#10;"/>
    <rect xmlns="http://www.w3.org/2000/svg" x="228" id="ll" y="20" width="30" height="30" rx="48" ry="48" fill="none" stroke-width="3" style="&#10;    y: 115px;&#10;    x: 158px;&#10;    stroke: blue;&#10;    rx: 6px;&#10;    ry: 6px;&#10;    fill: #a64faf;&#10;"/>
    <rect xmlns="http://www.w3.org/2000/svg" x="228" id="ll" y="20" width="30" height="30" rx="48" ry="48" fill="none" stroke-width="3" style="&#10;    y: 115px;&#10;    x: 213px;&#10;    stroke: #00ff4c;&#10;    rx: 6px;&#10;    ry: 6px;&#10;    fill: #a1911c;&#10;"/>
    <rect xmlns="http://www.w3.org/2000/svg" x="228" id="ll" y="20" width="30" height="30" rx="48" ry="48" fill="none" stroke-width="3" style="&#10;    y: 115px;&#10;    x: 268px;&#10;    stroke: #00d0ff;&#10;    rx: 6px;&#10;    ry: 6px;&#10;    fill: #1890c0;&#10;"/>
    <rect xmlns="http://www.w3.org/2000/svg" x="228" id="ll" y="20" width="30" height="30" rx="48" ry="48" fill="none" stroke-width="3" style="&#10;    y: 115px;&#10;    x: 324px;&#10;    stroke: #0072ff;&#10;    rx: 6px;&#10;    ry: 6px;&#10;    fill: #102154;&#10;"/>
    <rect xmlns="http://www.w3.org/2000/svg" x="228" id="ll" y="20" width="30" height="30" rx="48" ry="48" fill="none" stroke-width="3" style="&#10;    y: 257px;&#10;    x: 144px;&#10;    stroke: #000000;&#10;    rx: 6px;&#10;    ry: 6px;&#10;    fill: #2c5f5e;&#10;    display: block;&#10;    width: 44%;&#10;    height: 44%;&#10;    position: absolute;&#10;    z-index: 10;&#10;"/>
    <path d="M176 16h24a8 8 0 018 8h0a16 16 0 0016 16h64a16 16 0 0016-16h0a8 8 0 018-8h24" fill="none" stroke="currentColor" stroke-linecap="round" stroke-linejoin="round" stroke-width="32"/>
</svg>